# Blender 4.0.2
# www.blender.org
mtllib crystal.mtl
o Cube.013
v 0.053833 0.831329 1.554296
v -0.177112 0.809038 1.505113
v 0.063211 0.996942 1.400814
v 0.097512 0.679286 1.392905
v 0.004503 0.600608 1.689969
v -0.121463 0.585638 1.669981
v 0.029160 0.511430 1.600873
v 0.086560 0.498396 1.973989
v -0.059363 0.653365 1.757589
v 0.096689 0.613864 1.698339
v 0.122293 0.523094 1.604719
v 0.146459 0.530674 1.802748
v 0.106706 0.817259 1.637831
v 0.170875 0.595635 1.408954
v 0.329519 0.673771 1.864047
v 0.324338 0.990671 1.532192
v 0.388507 0.769047 1.303315
v 0.547151 0.847183 1.758408
v 0.582672 0.918014 1.466353
v 0.587292 0.902058 1.449875
v 0.598714 0.907683 1.482641
v 0.603521 0.890949 1.464878
v 0.613919 0.614764 1.511699
v 0.396288 0.441352 1.617338
v 0.173761 0.435638 1.701870
v 0.157067 0.252963 1.713465
v -0.200035 0.212328 1.650840
v -0.051917 0.377900 1.506810
v -0.129878 0.369817 1.493325
v -0.063379 0.453811 1.527576
v 0.059690 0.369053 1.298765
v -0.161843 0.346086 1.260447
v 0.024872 0.579269 1.374058
v 0.093043 0.464034 1.049004
v -0.128490 0.441067 1.010686
v 0.058226 0.674251 1.124297
v 0.116438 0.530656 0.873814
v -0.105095 0.507689 0.835496
v 0.081621 0.740873 0.949107
v 0.033387 0.708049 0.646211
v 0.011780 0.705809 0.642473
v 0.029991 0.728553 0.653554
v 0.008384 0.726312 0.649817
v -0.139912 0.717906 0.910789
v -0.163307 0.651283 1.085979
v -0.198077 0.566886 1.336055
v -0.141340 0.445729 1.514091
v -0.096698 0.498382 1.579104
v -0.131879 0.663320 1.353592
v -0.117339 0.824324 1.205850
v -0.200125 0.760964 1.327408
v -0.222822 0.839972 1.411274
v -0.164635 0.847080 1.255886
v -0.291931 0.715401 1.278669
v -0.333074 0.858616 1.430690
v -0.227600 0.871500 1.149022
v -0.495848 0.740739 1.203469
v -0.535925 0.880247 1.351554
v -0.433183 0.892797 1.077179
v -0.638460 0.879567 1.156417
v -0.644767 0.901524 1.179724
v -0.628597 0.903499 1.136540
v -0.634905 0.925456 1.159847
v -0.473260 1.032305 1.225264
v -0.268743 1.014715 1.301043
v -0.187332 0.926088 1.339751
v -0.155127 0.971879 1.357653
v -0.150738 1.107897 1.238384
v 0.070794 1.130864 1.276701
v -0.107060 0.955853 1.076992
v -0.019522 1.190471 1.049165
v -0.003721 1.192109 1.051898
v -0.016407 1.179626 1.037654
v -0.000606 1.181264 1.040387
v 0.114472 0.978820 1.115310
v 0.106889 0.844898 1.239423
v -0.270760 0.466344 1.907481
v -0.194688 0.598422 1.850652
v -0.277969 0.836613 1.884059
v -0.179405 0.640920 1.736826
v -0.074646 0.610868 1.871416
v -0.056436 0.859580 1.922377
v -0.014199 0.815029 1.704884
v -0.072603 1.104434 1.869082
v -0.294136 1.081467 1.830764
v -0.030365 1.059883 1.651588
v -0.152316 1.245005 1.714952
v -0.197425 1.240328 1.707150
v -0.143716 1.235933 1.670666
v -0.188825 1.231256 1.662863
v -0.251898 1.036916 1.613271
v -0.235731 0.792062 1.666566
vn -0.2142 0.5370 0.8159
vn -0.2165 0.6707 0.7094
vn 0.9803 0.1016 0.1696
vn 0.9562 -0.0314 0.2911
vn 0.0148 0.7860 -0.6181
vn -0.0482 0.7050 -0.7076
vn 0.5597 0.8045 0.1987
vn 0.1415 0.9112 0.3869
vn -0.9688 -0.0235 -0.2469
vn -0.6021 0.3338 0.7253
vn -0.6523 0.4449 -0.6136
vn -0.2321 0.7017 0.6737
vn 0.0268 0.7219 -0.6915
vn 0.3223 0.9103 0.2600
vn 0.7312 0.5826 -0.3549
vn 0.9776 0.0704 0.1982
vn 0.6350 -0.1058 -0.7652
vn 0.6548 -0.4536 0.6045
vn 0.1940 -0.6763 -0.7106
vn 0.2818 -0.6591 0.6972
vn -0.2335 -0.8543 -0.4644
vn 0.9457 -0.0662 0.3183
vn 0.4441 -0.2848 -0.8495
vn -0.1957 0.7374 0.6465
vn -0.0503 -0.7252 0.6867
vn 0.1968 -0.3064 -0.9313
vn -0.6883 -0.0892 0.7199
vn -0.1353 -0.2804 0.9503
vn 0.0875 -0.9922 0.0891
vn 0.8776 -0.0189 0.4790
vn 0.1541 -0.9302 -0.3332
vn 0.1884 -0.7401 -0.6456
vn 0.9589 0.2221 -0.1768
vn 0.1239 0.3527 -0.9275
vn -0.0990 0.9948 -0.0242
vn -0.8694 0.0326 -0.4930
vn -0.9803 -0.1016 -0.1696
vn -0.1541 0.9302 0.3332
vn -0.9801 -0.1020 -0.1702
vn -0.1295 0.9388 0.3193
vn -0.1537 0.7998 0.5803
vn -0.9653 -0.2069 0.1593
vn -0.0316 -0.7660 0.6421
vn 0.9691 -0.2467 -0.0051
vn -0.8727 0.2064 -0.4425
vn -0.9658 -0.2575 -0.0314
vn 0.1662 -0.7883 -0.5925
vn -0.8275 -0.5057 0.2440
vn -0.6080 -0.4545 -0.6510
vn 0.1698 -0.6748 -0.7182
vn -0.0024 -0.7282 0.6854
vn 0.5823 -0.6479 -0.4911
vn -0.3139 -0.7320 0.6046
vn 0.1815 -0.6715 -0.7184
vn -0.7074 -0.6000 0.3738
vn -0.2707 -0.5466 -0.7924
vn -0.9334 0.0981 -0.3450
vn -0.1746 0.6927 -0.6998
vn -0.6113 0.6393 0.4664
vn -0.2050 0.6740 0.7097
vn 0.2904 0.7345 -0.6133
vn 0.2347 0.5620 0.7931
vn 0.7631 0.5606 -0.3216
vn -0.7203 0.5444 0.4299
vn -0.4438 0.5864 -0.6776
vn -0.2059 0.6603 0.7222
vn -0.9819 -0.0970 -0.1626
vn -0.1504 0.9401 0.3060
vn -0.8430 0.2586 -0.4717
vn 0.0415 0.7328 -0.6791
vn 0.1898 -0.2441 -0.9510
vn 0.8824 0.4374 -0.1733
vn 0.1807 -0.6849 -0.7059
vn -0.2008 0.4849 0.8512
vn -0.9185 0.1092 -0.3800
vn -0.1484 -0.1881 0.9709
vn -0.9246 -0.3465 -0.1584
vn 0.9740 -0.1497 0.1700
vn -0.1869 0.1971 0.9624
vn -0.1933 0.6731 0.7138
vn 0.8422 0.5365 0.0537
vn -0.0644 0.9751 -0.2122
vn 0.1469 0.1996 -0.9688
vn -0.9011 0.3557 -0.2479
vn 0.1869 -0.1971 -0.9624
vn 0.1949 -0.3528 -0.9152
vt 0.375000 0.000000
vt 0.375000 0.250000
vt 0.625000 0.000000
vt 0.625000 0.250000
vt 0.375000 0.750000
vt 0.625000 0.750000
vt 0.625000 1.000000
vt 0.375000 1.000000
vt 0.625000 0.500000
vt 0.125000 0.750000
vt 0.000000 0.000000
vt 0.125000 0.500000
vt 0.375000 0.500000
vt 0.875000 0.500000
vt 0.875000 0.750000
s 0
usemtl Material.005
f 1/1/1 2/2/1 6/2/1 5/1/1
f 1/1/2 3/3/2 67/4/2 2/2/2
f 4/5/3 76/6/3 3/7/3 1/8/3
f 4/5/4 1/8/4 5/8/4 7/5/4
f 5/8/5 6/2/5 80/9/5 9/6/5
f 7/5/6 5/8/6 10/8/6 11/5/6
f 8/8/7 5/8/7 9/6/7 81/5/7
f 5/8/8 8/8/8 12/8/8 10/8/8
f 11/5/9 10/8/9 13/8/9 14/5/9
f 10/8/10 12/8/10 15/8/10 13/8/10
f 14/5/11 13/8/11 16/8/11 17/5/11
f 13/8/12 15/8/12 18/8/12 16/8/12
f 17/5/13 16/8/13 19/8/13 20/5/13
f 16/8/14 18/8/14 21/8/14 19/8/14
f 20/5/15 19/8/15 21/8/15 22/5/15
f 18/10/16 23/5/16 22/5/16 21/10/16
f 23/5/17 17/5/17 20/5/17 22/5/17
f 15/10/18 24/5/18 23/5/18 18/10/18
f 24/5/19 14/5/19 17/5/19 23/5/19
f 12/10/20 25/5/20 24/5/20 15/10/20
f 25/5/21 11/5/21 14/5/21 24/5/21
f 8/10/22 26/5/22 25/5/22 12/10/22
f 26/5/23 7/5/23 11/5/23 25/5/23
f 26/11/24 28/11/24 29/11/24 27/11/24
f 77/12/25 27/13/25 26/5/25 8/10/25
f 48/13/26 7/5/26 26/5/26 27/13/26
f 28/1/27 26/5/27 7/5/27 30/3/27
f 28/1/28 30/3/28 47/4/28 29/2/28
f 29/12/29 32/13/29 31/5/29 28/10/29
f 31/5/30 33/6/30 30/7/30 28/8/30
f 31/5/31 32/13/31 35/13/31 34/5/31
f 33/6/3 31/5/3 34/5/3 36/6/3
f 34/5/31 35/13/31 38/13/31 37/5/31
f 36/6/3 34/5/3 37/5/3 39/6/3
f 37/5/32 38/13/32 41/13/32 40/5/32
f 39/6/33 37/5/33 40/5/33 42/6/33
f 41/13/34 43/9/34 42/6/34 40/5/34
f 44/9/35 39/6/35 42/6/35 43/9/35
f 38/13/36 44/9/36 43/9/36 41/13/36
f 35/13/37 45/9/37 44/9/37 38/13/37
f 45/9/38 36/6/38 39/6/38 44/9/38
f 32/13/39 46/9/39 45/9/39 35/13/39
f 46/9/40 33/6/40 36/6/40 45/9/40
f 46/9/41 47/14/41 30/15/41 33/6/41
f 29/2/42 47/4/42 46/9/42 32/13/42
f 30/11/43 7/11/43 48/11/43 47/11/43
f 47/11/44 48/11/44 27/11/44 29/11/44
f 6/2/45 48/13/45 27/13/45 77/2/45
f 2/2/46 49/13/46 48/13/46 6/2/46
f 49/13/47 4/5/47 7/5/47 48/13/47
f 49/13/48 2/2/48 52/2/48 51/13/48
f 50/9/49 49/13/49 51/13/49 53/9/49
f 49/13/50 50/9/50 76/6/50 4/5/50
f 51/13/51 52/2/51 55/2/51 54/13/51
f 53/9/52 51/13/52 54/13/52 56/9/52
f 54/13/53 55/2/53 58/2/53 57/13/53
f 56/9/54 54/13/54 57/13/54 59/9/54
f 57/13/55 58/2/55 61/2/55 60/13/55
f 59/9/56 57/13/56 60/13/56 62/9/56
f 61/2/57 63/4/57 62/9/57 60/13/57
f 64/4/58 59/9/58 62/9/58 63/4/58
f 58/2/59 64/4/59 63/4/59 61/2/59
f 55/2/60 65/4/60 64/4/60 58/2/60
f 65/4/61 56/9/61 59/9/61 64/4/61
f 52/2/62 66/4/62 65/4/62 55/2/62
f 66/4/63 53/9/63 56/9/63 65/4/63
f 2/2/64 67/4/64 66/4/64 52/2/64
f 67/4/65 50/9/65 53/9/65 66/4/65
f 67/4/66 3/3/66 69/3/66 68/4/66
f 50/9/67 67/4/67 68/4/67 70/9/67
f 68/4/68 69/3/68 72/3/68 71/4/68
f 70/9/69 68/4/69 71/4/69 73/9/69
f 73/9/70 71/14/70 72/15/70 74/6/70
f 75/6/71 70/9/71 73/9/71 74/6/71
f 69/7/72 75/6/72 74/6/72 72/7/72
f 76/6/73 50/9/73 70/9/73 75/6/73
f 3/7/3 76/6/3 75/6/3 69/7/3
f 77/12/74 8/8/74 81/5/74 78/13/74
f 77/12/75 78/13/75 80/9/75 6/2/75
f 79/12/76 78/13/76 81/5/76 82/10/76
f 79/2/77 92/4/77 80/9/77 78/13/77
f 81/5/78 9/6/78 83/7/78 82/8/78
f 79/12/79 82/10/79 84/10/79 85/12/79
f 82/8/3 83/7/3 86/7/3 84/8/3
f 85/12/80 84/10/80 87/10/80 88/12/80
f 84/8/81 86/7/81 89/7/81 87/8/81
f 87/1/82 89/3/82 90/4/82 88/2/82
f 86/15/83 91/14/83 90/14/83 89/15/83
f 91/4/84 85/2/84 88/2/84 90/4/84
f 83/15/85 92/14/85 91/14/85 86/15/85
f 92/4/37 79/2/37 85/2/37 91/4/37
f 80/9/86 92/14/86 83/15/86 9/6/86
