# Blender 4.0.2
# www.blender.org
mtllib model4.mtl
o Cube
v 10.000000 0.500000 -10.000000
v 10.000000 -0.500000 -10.000000
v 10.000000 0.500000 10.000000
v 10.000000 -0.500000 10.000000
v -10.000000 0.500000 -10.000000
v -10.000000 -0.500000 -10.000000
v -10.000000 0.500000 10.000000
v -10.000000 -0.500000 10.000000
v -10.000000 0.000000 -2.000000
v -10.000000 4.000000 -2.000000
v -10.000000 0.000000 -3.000000
v -10.000000 4.000000 -3.000000
v -2.000000 0.000000 -2.000000
v -2.000000 4.000000 -2.000000
v -2.000000 0.000000 -3.000000
v -2.000000 4.000000 -3.000000
v -2.000000 0.000000 -3.000000
v -2.000000 4.000000 -3.000000
v -3.000000 0.000000 -3.000000
v -3.000000 4.000000 -3.000000
v -2.000000 0.000000 -10.000000
v -2.000000 4.000000 -10.000000
v -3.000000 0.000000 -10.000000
v -3.000000 4.000000 -10.000000
v 3.000000 0.000000 -2.000000
v 3.000000 4.000000 -2.000000
v 3.000000 0.000000 -3.000000
v 3.000000 4.000000 -3.000000
v 10.000000 0.000000 -2.000000
v 10.000000 4.000000 -2.000000
v 10.000000 0.000000 -3.000000
v 10.000000 4.000000 -3.000000
v 2.000000 0.000000 -10.000000
v 2.000000 4.000000 -10.000000
v 3.000000 0.000000 -10.000000
v 3.000000 4.000000 -10.000000
v 2.000000 0.000000 -2.000000
v 2.000000 4.000000 -2.000000
v 3.000000 0.000000 -2.000000
v 3.000000 4.000000 -2.000000
v -2.000000 0.000000 3.000000
v -2.000000 4.000000 3.000000
v -3.000000 0.000000 3.000000
v -3.000000 4.000000 3.000000
v -2.000000 0.000000 10.000000
v -2.000000 4.000000 10.000000
v -3.000000 0.000000 10.000000
v -3.000000 4.000000 10.000000
v 2.000000 0.000000 10.000000
v 2.000000 4.000000 10.000000
v 3.000000 0.000000 10.000000
v 3.000000 4.000000 10.000000
v 2.000000 0.000000 2.000000
v 2.000000 4.000000 2.000000
v 3.000000 0.000000 2.000000
v 3.000000 4.000000 2.000000
v 3.000000 0.000000 2.000000
v 3.000000 4.000000 2.000000
v 3.000000 0.000000 3.000000
v 3.000000 4.000000 3.000000
v 10.000000 0.000000 2.000000
v 10.000000 4.000000 2.000000
v 10.000000 0.000000 3.000000
v 10.000000 4.000000 3.000000
v -10.000000 0.000000 2.000000
v -10.000000 4.000000 2.000000
v -10.000000 0.000000 3.000000
v -10.000000 4.000000 3.000000
v -2.000000 0.000000 2.000000
v -2.000000 4.000000 2.000000
v -2.000000 0.000000 3.000000
v -2.000000 4.000000 3.000000
vn -0.0000 1.0000 -0.0000
vn -0.0000 -0.0000 1.0000
vn -1.0000 -0.0000 -0.0000
vn -0.0000 -1.0000 -0.0000
vn 1.0000 -0.0000 -0.0000
vn -0.0000 -0.0000 -1.0000
vt 0.625000 0.500000
vt 0.875000 0.500000
vt 0.875000 0.750000
vt 0.625000 0.750000
vt 0.375000 0.750000
vt 0.625000 1.000000
vt 0.375000 1.000000
vt 0.375000 0.000000
vt 0.625000 0.000000
vt 0.625000 0.250000
vt 0.375000 0.250000
vt 0.125000 0.500000
vt 0.375000 0.500000
vt 0.125000 0.750000
s 0
usemtl Material
f 1/1/1 5/2/1 7/3/1 3/4/1
f 4/5/2 3/4/2 7/6/2 8/7/2
f 8/8/3 7/9/3 5/10/3 6/11/3
f 6/12/4 2/13/4 4/5/4 8/14/4
f 2/13/5 1/1/5 3/4/5 4/5/5
f 6/11/6 5/10/6 1/1/6 2/13/6
f 9/8/3 10/9/3 12/10/3 11/11/3
f 11/11/6 12/10/6 16/1/6 15/13/6
f 15/13/5 16/1/5 14/4/5 13/5/5
f 13/5/2 14/4/2 10/6/2 9/7/2
f 11/12/4 15/13/4 13/5/4 9/14/4
f 16/1/1 12/2/1 10/3/1 14/4/1
f 17/8/2 18/9/2 20/10/2 19/11/2
f 19/11/3 20/10/3 24/1/3 23/13/3
f 23/13/6 24/1/6 22/4/6 21/5/6
f 21/5/5 22/4/5 18/6/5 17/7/5
f 19/12/4 23/13/4 21/5/4 17/14/4
f 24/1/1 20/2/1 18/3/1 22/4/1
f 25/8/3 26/9/3 28/10/3 27/11/3
f 27/11/6 28/10/6 32/1/6 31/13/6
f 31/13/5 32/1/5 30/4/5 29/5/5
f 29/5/2 30/4/2 26/6/2 25/7/2
f 27/12/4 31/13/4 29/5/4 25/14/4
f 32/1/1 28/2/1 26/3/1 30/4/1
f 33/8/6 34/9/6 36/10/6 35/11/6
f 35/11/5 36/10/5 40/1/5 39/13/5
f 39/13/2 40/1/2 38/4/2 37/5/2
f 37/5/3 38/4/3 34/6/3 33/7/3
f 35/12/4 39/13/4 37/5/4 33/14/4
f 40/1/1 36/2/1 34/3/1 38/4/1
f 41/8/2 42/9/2 44/10/2 43/11/2
f 43/11/3 47/13/3 48/1/3 44/10/3
f 47/13/2 45/5/2 46/4/2 48/1/2
f 45/5/5 41/7/5 42/6/5 46/4/5
f 43/12/4 41/14/4 45/5/4 47/13/4
f 48/1/1 46/4/1 42/3/1 44/2/1
f 49/8/2 51/11/2 52/10/2 50/9/2
f 51/11/5 55/13/5 56/1/5 52/10/5
f 55/13/6 53/5/6 54/4/6 56/1/6
f 53/5/3 49/7/3 50/6/3 54/4/3
f 51/12/4 49/14/4 53/5/4 55/13/4
f 56/1/1 54/4/1 50/3/1 52/2/1
f 57/8/5 58/9/5 60/10/5 59/11/5
f 59/11/2 63/13/2 64/1/2 60/10/2
f 63/13/5 61/5/5 62/4/5 64/1/5
f 61/5/6 57/7/6 58/6/6 62/4/6
f 59/12/4 57/14/4 61/5/4 63/13/4
f 64/1/1 62/4/1 58/3/1 60/2/1
f 65/8/3 67/11/3 68/10/3 66/9/3
f 67/11/2 71/13/2 72/1/2 68/10/2
f 71/13/5 69/5/5 70/4/5 72/1/5
f 69/5/6 65/7/6 66/6/6 70/4/6
f 67/12/4 65/14/4 69/5/4 71/13/4
f 72/1/1 70/4/1 66/3/1 68/2/1
