# Blender 4.0.2
# www.blender.org
mtllib module3.mtl
o Cube.002
v 3.000000 -0.095147 -3.604166
v 3.000000 -0.999998 -3.604166
v 3.000000 -0.095146 8.395835
v 3.000000 -0.999997 8.395835
v -3.000000 -0.095147 -3.604166
v -3.000000 -0.999998 -3.604166
v -3.000000 -0.095146 8.395835
v -3.000000 -0.999997 8.395835
v 2.000000 -0.999998 -3.604166
v 1.000000 -0.999998 -3.604166
v 0.000000 -0.999998 -3.604166
v -1.000000 -0.999998 -3.604166
v -2.000000 -0.999998 -3.604166
v 2.000000 -0.095146 8.395835
v 1.000000 -0.095146 8.395835
v 0.000000 -0.095146 8.395835
v -1.000000 -0.095146 8.395835
v -2.000000 -0.095146 8.395835
v -2.000000 -0.999997 8.395835
v -1.000000 -0.999997 8.395835
v 0.000000 -0.999997 8.395835
v 1.000000 -0.999997 8.395835
v 2.000000 -0.999997 8.395835
v -2.000000 -0.095147 -3.604166
v -1.000000 -0.095147 -3.604166
v 0.000000 -0.095147 -3.604166
v 1.000000 -0.095147 -3.604166
v 2.000000 -0.095147 -3.604166
v -2.000000 3.702372 8.395835
v -3.000000 3.702372 8.395835
v 3.000000 3.702371 -3.604166
v 3.000000 3.702372 8.395835
v -3.000000 3.702371 -3.604166
v 2.000000 3.702371 -3.604166
v 2.000000 3.702372 8.395835
v -2.000000 3.702371 -3.604166
v -3.000000 -0.999998 -2.604166
v -3.000000 -0.999998 -1.604165
v -3.000000 -0.999998 -0.604165
v -3.000000 -0.999998 0.395835
v -3.000000 -0.999998 1.395835
v -3.000000 -0.999998 2.395834
v -3.000000 -0.999997 3.395834
v -3.000000 -0.999997 4.395834
v -3.000000 -0.999997 5.395834
v -3.000000 -0.999997 6.395834
v -3.000000 -0.999997 7.395834
v 3.000000 -0.095147 -2.604166
v 3.000000 -0.095147 -1.604166
v 3.000000 -0.095147 -0.604166
v 3.000000 -0.095147 0.395834
v 3.000000 -0.095147 1.395834
v 3.000000 -0.095147 2.395834
v 3.000000 -0.095146 3.395834
v 3.000000 -0.095146 4.395834
v 3.000000 -0.095146 5.395834
v 3.000000 -0.095146 6.395834
v 3.000000 -0.095146 7.395834
v -3.000000 -0.095146 7.395834
v -3.000000 -0.095146 6.395834
v -3.000000 -0.095146 5.395834
v -3.000000 -0.095146 4.395834
v -3.000000 -0.095146 3.395834
v -3.000000 -0.095147 2.395834
v -3.000000 -0.095147 1.395834
v -3.000000 -0.095147 0.395834
v -3.000000 -0.095147 -0.604166
v -3.000000 -0.095147 -1.604166
v -3.000000 -0.095147 -2.604166
v 3.000000 -0.999997 7.395834
v 3.000000 -0.999997 6.395834
v 3.000000 -0.999997 5.395834
v 3.000000 -0.999997 4.395834
v 3.000000 -0.999997 3.395834
v 3.000000 -0.999998 2.395834
v 3.000000 -0.999998 1.395835
v 3.000000 -0.999998 0.395835
v 3.000000 -0.999998 -0.604165
v 3.000000 -0.999998 -1.604165
v 3.000000 -0.999998 -2.604166
v -2.000000 -0.999998 -2.604166
v -2.000000 -0.999998 -1.604165
v -2.000000 -0.999998 -0.604165
v -2.000000 -0.999998 0.395835
v -2.000000 -0.999998 1.395835
v -2.000000 -0.999998 2.395834
v -2.000000 -0.999997 3.395834
v -2.000000 -0.999997 4.395834
v -2.000000 -0.999997 5.395834
v -2.000000 -0.999997 6.395834
v -2.000000 -0.999997 7.395834
v -1.000000 -0.999998 -2.604166
v -1.000000 -0.999998 -1.604165
v -1.000000 -0.999998 -0.604165
v -1.000000 -0.999998 0.395835
v -1.000000 -0.999998 1.395835
v -1.000000 -0.999998 2.395834
v -1.000000 -0.999997 3.395834
v -1.000000 -0.999997 4.395834
v -1.000000 -0.999997 5.395834
v -1.000000 -0.999997 6.395834
v -1.000000 -0.999997 7.395834
v 0.000000 -0.999998 -2.604166
v 0.000000 -0.999998 -1.604165
v 0.000000 -0.999998 -0.604165
v 0.000000 -0.999998 0.395835
v 0.000000 -0.999998 1.395835
v 0.000000 -0.999998 2.395834
v 0.000000 -0.999997 3.395834
v 0.000000 -0.999997 4.395834
v 0.000000 -0.999997 5.395834
v 0.000000 -0.999997 6.395834
v 0.000000 -0.999997 7.395834
v 1.000000 -0.999998 -2.604166
v 1.000000 -0.999998 -1.604165
v 1.000000 -0.999998 -0.604165
v 1.000000 -0.999998 0.395835
v 1.000000 -0.999998 1.395835
v 1.000000 -0.999998 2.395834
v 1.000000 -0.999997 3.395834
v 1.000000 -0.999997 4.395834
v 1.000000 -0.999997 5.395834
v 1.000000 -0.999997 6.395834
v 1.000000 -0.999997 7.395834
v 2.000000 -0.999998 -2.604166
v 2.000000 -0.999998 -1.604165
v 2.000000 -0.999998 -0.604165
v 2.000000 -0.999998 0.395835
v 2.000000 -0.999998 1.395835
v 2.000000 -0.999998 2.395834
v 2.000000 -0.999997 3.395834
v 2.000000 -0.999997 4.395834
v 2.000000 -0.999997 5.395834
v 2.000000 -0.999997 6.395834
v 2.000000 -0.999997 7.395834
v 2.000000 -0.095147 -2.604166
v 2.000000 -0.095147 -1.604166
v 2.000000 -0.095147 -0.604166
v 2.000000 -0.095147 0.395834
v 2.000000 -0.095147 1.395834
v 2.000000 -0.095147 2.395834
v 2.000000 -0.095146 3.395834
v 2.000000 -0.095146 4.395834
v 2.000000 -0.095146 5.395834
v 2.000000 -0.095146 6.395834
v 2.000000 -0.095146 7.395834
v 1.000000 -0.095147 -2.604166
v 1.000000 -0.095147 -1.604166
v 1.000000 -0.095147 -0.604166
v 1.000000 -0.095147 0.395834
v 1.000000 -0.095147 1.395834
v 1.000000 -0.095147 2.395834
v 1.000000 -0.095146 3.395834
v 1.000000 -0.095146 4.395834
v 1.000000 -0.095146 5.395834
v 1.000000 -0.095146 6.395834
v 1.000000 -0.095146 7.395834
v 0.000000 -0.095147 -2.604166
v 0.000000 -0.095147 -1.604166
v 0.000000 -0.095147 -0.604166
v 0.000000 -0.095147 0.395834
v 0.000000 -0.095147 1.395834
v 0.000000 -0.095147 2.395834
v 0.000000 -0.095146 3.395834
v 0.000000 -0.095146 4.395834
v 0.000000 -0.095146 5.395834
v 0.000000 -0.095146 6.395834
v 0.000000 -0.095146 7.395834
v -1.000000 -0.095147 -2.604166
v -1.000000 -0.095147 -1.604166
v -1.000000 -0.095147 -0.604166
v -1.000000 -0.095147 0.395834
v -1.000000 -0.095147 1.395834
v -1.000000 -0.095147 2.395834
v -1.000000 -0.095146 3.395834
v -1.000000 -0.095146 4.395834
v -1.000000 -0.095146 5.395834
v -1.000000 -0.095146 6.395834
v -1.000000 -0.095146 7.395834
v -2.000000 -0.095147 -2.604166
v -2.000000 -0.095147 -1.604166
v -2.000000 -0.095147 -0.604166
v -2.000000 -0.095147 0.395834
v -2.000000 -0.095147 1.395834
v -2.000000 -0.095147 2.395834
v -2.000000 -0.095146 3.395834
v -2.000000 -0.095146 4.395834
v -2.000000 -0.095146 5.395834
v -2.000000 -0.095146 6.395834
v -2.000000 -0.095146 7.395834
v 3.000000 3.702371 -2.604166
v 3.000000 3.702371 -1.604166
v 3.000000 3.702371 -0.604166
v 3.000000 3.702371 0.395834
v 3.000000 3.702371 1.395834
v 3.000000 3.702371 2.395834
v 3.000000 3.702371 3.395834
v 3.000000 3.702372 7.395834
v -3.000000 3.702372 7.395834
v -3.000000 3.702371 3.395834
v -3.000000 3.702371 2.395834
v -3.000000 3.702371 1.395834
v -3.000000 3.702371 0.395834
v -3.000000 3.702371 -0.604166
v -3.000000 3.702371 -1.604166
v -3.000000 3.702371 -2.604166
v 2.000000 3.702371 -2.604166
v 2.000000 3.702371 -1.604166
v 2.000000 3.702371 -0.604166
v 2.000000 3.702371 0.395834
v 2.000000 3.702371 1.395834
v 2.000000 3.702371 2.395834
v 2.000000 3.702371 3.395834
v 2.000000 3.702372 7.395834
v -2.000000 3.702371 -2.604166
v -2.000000 3.702371 -1.604166
v -2.000000 3.702371 -0.604166
v -2.000000 3.702371 0.395834
v -2.000000 3.702371 1.395834
v -2.000000 3.702371 2.395834
v -2.000000 3.702371 3.395834
v -2.000000 3.702372 7.395834
vn -0.0000 -0.0000 1.0000
vn -1.0000 -0.0000 -0.0000
vn -0.0000 -1.0000 -0.0000
vn 1.0000 -0.0000 -0.0000
vn -0.0000 -0.0000 -1.0000
vn -0.0000 1.0000 -0.0000
vt 0.625000 1.000000
vt 0.625000 0.958333
vt 0.375000 0.958333
vt 0.375000 1.000000
vt 0.375000 0.229167
vt 0.625000 0.229167
vt 0.625000 0.250000
vt 0.375000 0.250000
vt 0.333333 0.729167
vt 0.375000 0.729167
vt 0.375000 0.750000
vt 0.333333 0.750000
vt 0.625000 0.729167
vt 0.625000 0.750000
vt 0.375000 0.458333
vt 0.625000 0.458333
vt 0.625000 0.500000
vt 0.375000 0.500000
vt 0.625000 0.291667
vt 0.375000 0.291667
vt 0.625000 0.333333
vt 0.375000 0.333333
vt 0.625000 0.375000
vt 0.375000 0.375000
vt 0.625000 0.416667
vt 0.375000 0.416667
vt 0.125000 0.729167
vt 0.166667 0.729167
vt 0.166667 0.750000
vt 0.125000 0.750000
vt 0.208333 0.729167
vt 0.208333 0.750000
vt 0.250000 0.729167
vt 0.250000 0.750000
vt 0.291667 0.729167
vt 0.291667 0.750000
vt 0.625000 0.791667
vt 0.375000 0.791667
vt 0.625000 0.833333
vt 0.375000 0.833333
vt 0.625000 0.875000
vt 0.375000 0.875000
vt 0.625000 0.916667
vt 0.375000 0.916667
vt 0.666667 0.729167
vt 0.708333 0.729167
vt 0.708333 0.750000
vt 0.666667 0.750000
vt 0.750000 0.729167
vt 0.750000 0.750000
vt 0.791667 0.729167
vt 0.791667 0.750000
vt 0.833333 0.729167
vt 0.833333 0.750000
vt 0.875000 0.729167
vt 0.875000 0.750000
vt 0.625000 0.020833
vt 0.625000 0.000000
vt 0.833333 0.520833
vt 0.833333 0.500000
vt 0.625000 0.520833
vt 0.666667 0.500000
vt 0.666667 0.520833
vt 0.666667 0.541667
vt 0.666667 0.562500
vt 0.666667 0.583333
vt 0.666667 0.604167
vt 0.666667 0.625000
vt 0.666667 0.645833
vt 0.625000 0.645833
vt 0.625000 0.625000
vt 0.625000 0.604167
vt 0.625000 0.583333
vt 0.625000 0.562500
vt 0.625000 0.541667
vt 0.833333 0.645833
vt 0.833333 0.625000
vt 0.833333 0.604167
vt 0.833333 0.583333
vt 0.833333 0.562500
vt 0.833333 0.541667
vt 0.625000 0.208333
vt 0.625000 0.187500
vt 0.625000 0.166667
vt 0.625000 0.145833
vt 0.625000 0.125000
vt 0.625000 0.104167
vt 0.833333 0.708333
vt 0.625000 0.041667
vt 0.833333 0.687500
vt 0.625000 0.062500
vt 0.833333 0.666667
vt 0.625000 0.083333
vt 0.625000 0.666667
vt 0.666667 0.666667
vt 0.625000 0.687500
vt 0.666667 0.687500
vt 0.625000 0.708333
vt 0.666667 0.708333
vt 0.875000 0.500000
vt 0.875000 0.520833
vt 0.875000 0.541667
vt 0.875000 0.562500
vt 0.875000 0.583333
vt 0.875000 0.604167
vt 0.875000 0.625000
vt 0.875000 0.645833
vt 0.791667 0.500000
vt 0.791667 0.520833
vt 0.791667 0.541667
vt 0.791667 0.562500
vt 0.791667 0.583333
vt 0.791667 0.604167
vt 0.791667 0.625000
vt 0.791667 0.645833
vt 0.791667 0.666667
vt 0.791667 0.687500
vt 0.791667 0.708333
vt 0.750000 0.500000
vt 0.750000 0.520833
vt 0.750000 0.541667
vt 0.750000 0.562500
vt 0.750000 0.583333
vt 0.750000 0.604167
vt 0.750000 0.625000
vt 0.750000 0.645833
vt 0.750000 0.666667
vt 0.750000 0.687500
vt 0.750000 0.708333
vt 0.708333 0.500000
vt 0.708333 0.520833
vt 0.708333 0.541667
vt 0.708333 0.562500
vt 0.708333 0.583333
vt 0.708333 0.604167
vt 0.708333 0.625000
vt 0.708333 0.645833
vt 0.708333 0.666667
vt 0.708333 0.687500
vt 0.708333 0.708333
vt 0.291667 0.500000
vt 0.333333 0.500000
vt 0.333333 0.520833
vt 0.291667 0.520833
vt 0.333333 0.541667
vt 0.291667 0.541667
vt 0.333333 0.562500
vt 0.291667 0.562500
vt 0.333333 0.583333
vt 0.291667 0.583333
vt 0.333333 0.604167
vt 0.291667 0.604167
vt 0.333333 0.625000
vt 0.291667 0.625000
vt 0.333333 0.645833
vt 0.291667 0.645833
vt 0.333333 0.666667
vt 0.291667 0.666667
vt 0.333333 0.687500
vt 0.291667 0.687500
vt 0.333333 0.708333
vt 0.291667 0.708333
vt 0.250000 0.500000
vt 0.250000 0.520833
vt 0.250000 0.541667
vt 0.250000 0.562500
vt 0.250000 0.583333
vt 0.250000 0.604167
vt 0.250000 0.625000
vt 0.250000 0.645833
vt 0.250000 0.666667
vt 0.250000 0.687500
vt 0.250000 0.708333
vt 0.208333 0.500000
vt 0.208333 0.520833
vt 0.208333 0.541667
vt 0.208333 0.562500
vt 0.208333 0.583333
vt 0.208333 0.604167
vt 0.208333 0.625000
vt 0.208333 0.645833
vt 0.208333 0.666667
vt 0.208333 0.687500
vt 0.208333 0.708333
vt 0.166667 0.500000
vt 0.166667 0.520833
vt 0.166667 0.541667
vt 0.166667 0.562500
vt 0.166667 0.583333
vt 0.166667 0.604167
vt 0.166667 0.625000
vt 0.166667 0.645833
vt 0.166667 0.666667
vt 0.166667 0.687500
vt 0.166667 0.708333
vt 0.125000 0.500000
vt 0.125000 0.520833
vt 0.125000 0.541667
vt 0.125000 0.562500
vt 0.125000 0.583333
vt 0.125000 0.604167
vt 0.125000 0.625000
vt 0.125000 0.645833
vt 0.125000 0.666667
vt 0.125000 0.687500
vt 0.125000 0.708333
vt 0.375000 0.520833
vt 0.375000 0.541667
vt 0.375000 0.562500
vt 0.375000 0.583333
vt 0.375000 0.604167
vt 0.375000 0.625000
vt 0.375000 0.645833
vt 0.375000 0.666667
vt 0.375000 0.687500
vt 0.375000 0.708333
vt 0.375000 0.000000
vt 0.375000 0.020833
vt 0.375000 0.041667
vt 0.375000 0.062500
vt 0.375000 0.083333
vt 0.375000 0.104167
vt 0.375000 0.125000
vt 0.375000 0.145833
vt 0.375000 0.166667
vt 0.375000 0.187500
vt 0.375000 0.208333
s 0
usemtl Material.004
f 7/1/1 18/2/1 29/2/1 30/1/1
f 19/3/1 18/2/1 7/1/1 8/4/1
f 37/5/2 69/6/2 5/7/2 6/8/2
f 135/9/3 70/10/3 4/11/3 23/12/3
f 70/10/4 58/13/4 3/14/4 4/11/4
f 9/15/5 28/16/5 1/17/5 2/18/5
f 6/8/5 5/7/5 24/19/5 13/20/5
f 13/20/5 24/19/5 25/21/5 12/22/5
f 12/22/5 25/21/5 26/23/5 11/24/5
f 11/24/5 26/23/5 27/25/5 10/26/5
f 10/26/5 27/25/5 28/16/5 9/15/5
f 47/27/3 91/28/3 19/29/3 8/30/3
f 91/28/3 102/31/3 20/32/3 19/29/3
f 102/31/3 113/33/3 21/34/3 20/32/3
f 113/33/3 124/35/3 22/36/3 21/34/3
f 124/35/3 135/9/3 23/12/3 22/36/3
f 4/11/1 3/14/1 14/37/1 23/38/1
f 23/38/1 14/37/1 15/39/1 22/40/1
f 22/40/1 15/39/1 16/41/1 21/42/1
f 21/42/1 16/41/1 17/43/1 20/44/1
f 20/44/1 17/43/1 18/2/1 19/3/1
f 14/37/1 3/14/1 32/14/1 35/37/1
f 146/45/6 157/46/6 15/47/6 14/48/6
f 157/46/6 168/49/6 16/50/6 15/47/6
f 168/49/6 179/51/6 17/52/6 16/50/6
f 179/51/6 190/53/6 18/54/6 17/52/6
f 222/53/6 199/55/6 30/56/6 29/54/6
f 198/13/6 214/45/6 35/48/6 32/14/6
f 59/57/2 7/58/2 30/58/2 199/57/2
f 180/59/4 24/60/4 36/60/4 215/59/4
f 48/61/4 1/17/4 31/17/4 191/61/4
f 24/19/5 5/7/5 33/7/5 36/19/5
f 146/45/2 14/48/2 35/48/2 214/45/2
f 1/17/5 28/16/5 34/16/5 31/17/5
f 28/62/2 136/63/2 207/63/2 34/62/2
f 136/63/2 137/64/2 208/64/2 207/63/2
f 137/64/2 138/65/2 209/65/2 208/64/2
f 138/65/2 139/66/2 210/66/2 209/65/2
f 139/66/2 140/67/2 211/67/2 210/66/2
f 140/67/2 141/68/2 212/68/2 211/67/2
f 141/68/2 142/69/2 213/69/2 212/68/2
f 3/14/4 58/13/4 198/13/4 32/14/4
f 54/70/4 53/71/4 196/71/4 197/70/4
f 53/71/4 52/72/4 195/72/4 196/71/4
f 52/72/4 51/73/4 194/73/4 195/72/4
f 51/73/4 50/74/4 193/74/4 194/73/4
f 50/74/4 49/75/4 192/75/4 193/74/4
f 49/75/4 48/61/4 191/61/4 192/75/4
f 18/54/4 190/53/4 222/53/4 29/54/4
f 186/76/4 185/77/4 220/77/4 221/76/4
f 185/77/4 184/78/4 219/78/4 220/77/4
f 184/78/4 183/79/4 218/79/4 219/78/4
f 183/79/4 182/80/4 217/80/4 218/79/4
f 182/80/4 181/81/4 216/81/4 217/80/4
f 181/81/4 180/59/4 215/59/4 216/81/4
f 5/7/2 69/6/2 206/6/2 33/7/2
f 69/6/2 68/82/2 205/82/2 206/6/2
f 68/82/2 67/83/2 204/83/2 205/82/2
f 67/83/2 66/84/2 203/84/2 204/83/2
f 66/84/2 65/85/2 202/85/2 203/84/2
f 65/85/2 64/86/2 201/86/2 202/85/2
f 64/86/2 63/87/2 200/87/2 201/86/2
f 222/53/5 190/53/5 59/57/5 199/55/5
f 59/57/6 190/53/6 189/88/6 60/89/6
f 60/89/6 189/88/6 188/90/6 61/91/6
f 61/91/6 188/90/6 187/92/6 186/76/6 63/87/6 62/93/6
f 31/17/6 34/62/6 207/63/6 191/61/6
f 191/61/6 207/63/6 208/64/6 192/75/6
f 192/75/6 208/64/6 209/65/6 193/74/6
f 193/74/6 209/65/6 210/66/6 194/73/6
f 194/73/6 210/66/6 211/67/6 195/72/6
f 195/72/6 211/67/6 212/68/6 196/71/6
f 196/71/6 212/68/6 213/69/6 197/70/6
f 62/93/6 187/92/6 186/76/6 63/87/6
f 55/94/6 54/70/6 142/69/6 143/95/6
f 56/96/6 55/94/6 143/95/6 144/97/6
f 57/98/6 56/96/6 144/97/6 145/99/6
f 36/60/6 33/100/6 206/101/6 215/59/6
f 215/59/6 206/101/6 205/102/6 216/81/6
f 216/81/6 205/102/6 204/103/6 217/80/6
f 217/80/6 204/103/6 203/104/6 218/79/6
f 218/79/6 203/104/6 202/105/6 219/78/6
f 219/78/6 202/105/6 201/106/6 220/77/6
f 220/77/6 201/106/6 200/107/6 221/76/6
f 58/13/6 57/98/6 145/99/6 146/45/6
f 214/45/5 198/13/5 58/13/5 146/45/5
f 213/69/1 142/69/1 54/70/1 197/70/1
f 221/76/1 200/107/1 63/87/1 186/76/1
f 25/108/6 24/60/6 180/59/6 169/109/6
f 169/109/6 180/59/6 181/81/6 170/110/6
f 170/110/6 181/81/6 182/80/6 171/111/6
f 171/111/6 182/80/6 183/79/6 172/112/6
f 172/112/6 183/79/6 184/78/6 173/113/6
f 173/113/6 184/78/6 185/77/6 174/114/6
f 174/114/6 185/77/6 186/76/6 175/115/6
f 175/115/6 186/76/6 187/92/6 176/116/6
f 176/116/6 187/92/6 188/90/6 177/117/6
f 177/117/6 188/90/6 189/88/6 178/118/6
f 178/118/6 189/88/6 190/53/6 179/51/6
f 26/119/6 25/108/6 169/109/6 158/120/6
f 158/120/6 169/109/6 170/110/6 159/121/6
f 159/121/6 170/110/6 171/111/6 160/122/6
f 160/122/6 171/111/6 172/112/6 161/123/6
f 161/123/6 172/112/6 173/113/6 162/124/6
f 162/124/6 173/113/6 174/114/6 163/125/6
f 163/125/6 174/114/6 175/115/6 164/126/6
f 164/126/6 175/115/6 176/116/6 165/127/6
f 165/127/6 176/116/6 177/117/6 166/128/6
f 166/128/6 177/117/6 178/118/6 167/129/6
f 167/129/6 178/118/6 179/51/6 168/49/6
f 27/130/6 26/119/6 158/120/6 147/131/6
f 147/131/6 158/120/6 159/121/6 148/132/6
f 148/132/6 159/121/6 160/122/6 149/133/6
f 149/133/6 160/122/6 161/123/6 150/134/6
f 150/134/6 161/123/6 162/124/6 151/135/6
f 151/135/6 162/124/6 163/125/6 152/136/6
f 152/136/6 163/125/6 164/126/6 153/137/6
f 153/137/6 164/126/6 165/127/6 154/138/6
f 154/138/6 165/127/6 166/128/6 155/139/6
f 155/139/6 166/128/6 167/129/6 156/140/6
f 156/140/6 167/129/6 168/49/6 157/46/6
f 28/62/6 27/130/6 147/131/6 136/63/6
f 136/63/6 147/131/6 148/132/6 137/64/6
f 137/64/6 148/132/6 149/133/6 138/65/6
f 138/65/6 149/133/6 150/134/6 139/66/6
f 139/66/6 150/134/6 151/135/6 140/67/6
f 140/67/6 151/135/6 152/136/6 141/68/6
f 141/68/6 152/136/6 153/137/6 142/69/6
f 142/69/6 153/137/6 154/138/6 143/95/6
f 143/95/6 154/138/6 155/139/6 144/97/6
f 144/97/6 155/139/6 156/140/6 145/99/6
f 145/99/6 156/140/6 157/46/6 146/45/6
f 10/141/3 9/142/3 125/143/3 114/144/3
f 114/144/3 125/143/3 126/145/3 115/146/3
f 115/146/3 126/145/3 127/147/3 116/148/3
f 116/148/3 127/147/3 128/149/3 117/150/3
f 117/150/3 128/149/3 129/151/3 118/152/3
f 118/152/3 129/151/3 130/153/3 119/154/3
f 119/154/3 130/153/3 131/155/3 120/156/3
f 120/156/3 131/155/3 132/157/3 121/158/3
f 121/158/3 132/157/3 133/159/3 122/160/3
f 122/160/3 133/159/3 134/161/3 123/162/3
f 123/162/3 134/161/3 135/9/3 124/35/3
f 11/163/3 10/141/3 114/144/3 103/164/3
f 103/164/3 114/144/3 115/146/3 104/165/3
f 104/165/3 115/146/3 116/148/3 105/166/3
f 105/166/3 116/148/3 117/150/3 106/167/3
f 106/167/3 117/150/3 118/152/3 107/168/3
f 107/168/3 118/152/3 119/154/3 108/169/3
f 108/169/3 119/154/3 120/156/3 109/170/3
f 109/170/3 120/156/3 121/158/3 110/171/3
f 110/171/3 121/158/3 122/160/3 111/172/3
f 111/172/3 122/160/3 123/162/3 112/173/3
f 112/173/3 123/162/3 124/35/3 113/33/3
f 12/174/3 11/163/3 103/164/3 92/175/3
f 92/175/3 103/164/3 104/165/3 93/176/3
f 93/176/3 104/165/3 105/166/3 94/177/3
f 94/177/3 105/166/3 106/167/3 95/178/3
f 95/178/3 106/167/3 107/168/3 96/179/3
f 96/179/3 107/168/3 108/169/3 97/180/3
f 97/180/3 108/169/3 109/170/3 98/181/3
f 98/181/3 109/170/3 110/171/3 99/182/3
f 99/182/3 110/171/3 111/172/3 100/183/3
f 100/183/3 111/172/3 112/173/3 101/184/3
f 101/184/3 112/173/3 113/33/3 102/31/3
f 13/185/3 12/174/3 92/175/3 81/186/3
f 81/186/3 92/175/3 93/176/3 82/187/3
f 82/187/3 93/176/3 94/177/3 83/188/3
f 83/188/3 94/177/3 95/178/3 84/189/3
f 84/189/3 95/178/3 96/179/3 85/190/3
f 85/190/3 96/179/3 97/180/3 86/191/3
f 86/191/3 97/180/3 98/181/3 87/192/3
f 87/192/3 98/181/3 99/182/3 88/193/3
f 88/193/3 99/182/3 100/183/3 89/194/3
f 89/194/3 100/183/3 101/184/3 90/195/3
f 90/195/3 101/184/3 102/31/3 91/28/3
f 6/196/3 13/185/3 81/186/3 37/197/3
f 37/197/3 81/186/3 82/187/3 38/198/3
f 38/198/3 82/187/3 83/188/3 39/199/3
f 39/199/3 83/188/3 84/189/3 40/200/3
f 40/200/3 84/189/3 85/190/3 41/201/3
f 41/201/3 85/190/3 86/191/3 42/202/3
f 42/202/3 86/191/3 87/192/3 43/203/3
f 43/203/3 87/192/3 88/193/3 44/204/3
f 44/204/3 88/193/3 89/194/3 45/205/3
f 45/205/3 89/194/3 90/195/3 46/206/3
f 46/206/3 90/195/3 91/28/3 47/27/3
f 2/18/4 1/17/4 48/61/4 80/207/4
f 80/207/4 48/61/4 49/75/4 79/208/4
f 79/208/4 49/75/4 50/74/4 78/209/4
f 78/209/4 50/74/4 51/73/4 77/210/4
f 77/210/4 51/73/4 52/72/4 76/211/4
f 76/211/4 52/72/4 53/71/4 75/212/4
f 75/212/4 53/71/4 54/70/4 74/213/4
f 74/213/4 54/70/4 55/94/4 73/214/4
f 73/214/4 55/94/4 56/96/4 72/215/4
f 72/215/4 56/96/4 57/98/4 71/216/4
f 71/216/4 57/98/4 58/13/4 70/10/4
f 9/142/3 2/18/3 80/207/3 125/143/3
f 125/143/3 80/207/3 79/208/3 126/145/3
f 126/145/3 79/208/3 78/209/3 127/147/3
f 127/147/3 78/209/3 77/210/3 128/149/3
f 128/149/3 77/210/3 76/211/3 129/151/3
f 129/151/3 76/211/3 75/212/3 130/153/3
f 130/153/3 75/212/3 74/213/3 131/155/3
f 131/155/3 74/213/3 73/214/3 132/157/3
f 132/157/3 73/214/3 72/215/3 133/159/3
f 133/159/3 72/215/3 71/216/3 134/161/3
f 134/161/3 71/216/3 70/10/3 135/9/3
f 8/217/2 7/58/2 59/57/2 47/218/2
f 47/218/2 59/57/2 60/89/2 46/219/2
f 46/219/2 60/89/2 61/91/2 45/220/2
f 45/220/2 61/91/2 62/93/2 44/221/2
f 44/221/2 62/93/2 63/87/2 43/222/2
f 43/222/2 63/87/2 64/86/2 42/223/2
f 42/223/2 64/86/2 65/85/2 41/224/2
f 41/224/2 65/85/2 66/84/2 40/225/2
f 40/225/2 66/84/2 67/83/2 39/226/2
f 39/226/2 67/83/2 68/82/2 38/227/2
f 38/227/2 68/82/2 69/6/2 37/5/2
